<svg id="search" xmlns="http://www.w3.org/2000/svg" width="20" height="20" viewBox="0 0 20 20">
  <g id="Group_2" data-name="Group 2" transform="translate(3.007 4.335)">
    <g id="Group_1" data-name="Group 1">
      <path id="Path_1" data-name="Path 1" d="M79.493,111.192a.739.739,0,0,0-1.045,0A5.05,5.05,0,0,0,77,115.285a.739.739,0,0,0,.734.666c.025,0,.049,0,.074,0a.739.739,0,0,0,.662-.809,3.578,3.578,0,0,1,1.019-2.9A.738.738,0,0,0,79.493,111.192Z" transform="translate(-76.978 -110.975)" fill="#fff"/>
    </g>
  </g>
  <g id="Group_4" data-name="Group 4">
    <g id="Group_3" data-name="Group 3">
      <path id="Path_2" data-name="Path 2" d="M8.448,0A8.448,8.448,0,1,0,16.9,8.448,8.458,8.458,0,0,0,8.448,0Zm0,15.419a6.97,6.97,0,1,1,6.97-6.97A6.978,6.978,0,0,1,8.448,15.419Z" fill="#fff"/>
    </g>
  </g>
  <g id="Group_6" data-name="Group 6" transform="translate(13.153 13.153)">
    <g id="Group_5" data-name="Group 5">
      <path id="Path_3" data-name="Path 3" d="M343.339,342.3l-5.37-5.369a.739.739,0,1,0-1.045,1.045l5.37,5.369a.739.739,0,1,0,1.045-1.045Z" transform="translate(-336.708 -336.71)" fill="#fff"/>
    </g>
  </g>
</svg>
