<svg xmlns="http://www.w3.org/2000/svg" width="20" height="20" viewBox="0 0 20 20">
  <path id="Globe" d="M14,4A10,10,0,1,0,24,14,10.011,10.011,0,0,0,14,4Zm8,6.667H18.417a12.25,12.25,0,0,0-1.7-4.893A8.705,8.705,0,0,1,22,10.667ZM17.333,14c0,.7-.035,1.365-.1,2H10.763c-.061-.635-.1-1.3-.1-2s.036-1.365.1-2h6.474C17.3,12.635,17.333,13.3,17.333,14ZM14,22.667c-1.2,0-2.51-2.079-3.062-5.333h6.123C16.51,20.588,15.2,22.667,14,22.667Zm-3.062-12C11.49,7.412,12.8,5.333,14,5.333s2.51,2.079,3.062,5.333Zm.349-4.893a12.248,12.248,0,0,0-1.7,4.893H6A8.705,8.705,0,0,1,11.288,5.774ZM5.576,12H9.422c-.056.644-.089,1.31-.089,2s.033,1.357.089,2H5.576a8.38,8.38,0,0,1,0-4ZM6,17.333H9.583a12.25,12.25,0,0,0,1.705,4.892A8.705,8.705,0,0,1,6,17.333Zm10.71,4.892a12.248,12.248,0,0,0,1.7-4.892H22A8.7,8.7,0,0,1,16.712,22.226ZM22.424,16H18.578c.056-.643.089-1.31.089-2s-.033-1.357-.089-2h3.847a8.383,8.383,0,0,1,0,4Z" transform="translate(-4 -4)" fill="#fff"/>
</svg>
